<svg xmlns="http://www.w3.org/2000/svg" viewBox="0 0 64 64">
  <rect fill="#c9d7e6" x="11" y="6" width="42" height="22" rx="7" stroke="none"/>
  <g transform="translate(0 -1) rotate(-10 32 28) translate(32 28) scale(0.9) translate(-32 -28)">
    <path fill="#1c2835" stroke="#1c2835" d="M16 38V25L22 16.5L28 22H36L42 16.5L48 25V38Z" stroke-width="3" stroke-linejoin="round"/>
    <path stroke="#eef2f6" d="M22.5 28Q25.5 30.8 28.5 28M35.5 28Q38.5 30.8 41.5 28" fill="none" stroke-width="2.2" stroke-linecap="round"/>
  </g>
  <path d="M13 35Q32 29.2 51 35V58Q51 62 47 62H17Q13 62 13 58Z" fill="#6d9ee0"/>
  <path d="M13 35Q32 29.2 51 35V41.5Q32 35.7 13 41.5Z" fill="#8fb5dc"/>
  <ellipse fill="#1c2835" cx="24.5" cy="34" rx="3.8" ry="2.6" stroke="none"/>
  <ellipse fill="#1c2835" cx="39.5" cy="33.4" rx="3.8" ry="2.6" stroke="none"/>
  <g transform="translate(0 -1) rotate(-10 32 28) translate(32 28) scale(0.9) translate(-32 -28)">
    <path stroke="#1c2835" d="M17 31L8.5 29.5M17 34L8.5 35M47 31L55.5 29.5M47 34L55.5 35" fill="none" stroke-width="1.5" stroke-linecap="round"/>
  </g>
</svg>
